<svg xmlns="http://www.w3.org/2000/svg" xmlns:xlink="http://www.w3.org/1999/xlink" aria-hidden="true" role="img" class="iconify iconify--fluent" preserveAspectRatio="xMidYMid meet" viewBox="0 0 17 16">
  <g><path d="M9.916 9a1.5 1.5 0 0 1 1.5 1.5v.5c0 1.971-1.86 4-5 4c-3.14 0-5-2.029-5-4v-.5a1.5 1.5 0 0 1 1.5-1.5h7zm3.5-2a.75.75 0 1 1 0 1.5a.75.75 0 0 1 0-1.5zm-7-4.5a2.75 2.75 0 1 1 0 5.5a2.75 2.75 0 0 1 0-5.5zm7-1.5a2 2 0 0 1 2 2c0 .73-.212 1.14-.754 1.708l-.264.27c-.377.393-.482.605-.482 1.022a.5.5 0 1 1-1 0c0-.73.212-1.14.754-1.708l.264-.27c.378-.393.482-.605.482-1.022a1 1 0 1 0-2 0a.5.5 0 1 1-1 0a2 2 0 0 1 2-2z"></path></g>
</svg>
